# xmcd
#
# Track frame offsets: 
#        150
#        10530
#        20992
#        31717
#        41087
#        51810
#        63702
#        74087
#        84460
#        97095
#        108737
#        120077
#        130777
#        142060
#        153360
#        162940
#        176040
#        186800
#
# Disc length: 2640 seconds
#
# Revision: 0
# Processed by: cddbd v1.4PL0 Copyright (c) Steve Scherf et al.
# Submitted via: ExactAudioCopy v0.90b3
#
DISCID=fb0a4e12
DTITLE=Patsy Cline and Jeannie C. Riley - The Masters - Patsy Cline
DYEAR=1900
DGENRE=Country
TTITLE0=Walking Dream
TTITLE1=I Love You, Honey
TTITLE2=Stop, Look And Listen
TTITLE3=Come On In (And Make Yourself At Home)
TTITLE4=Honky Tonk Merry Go Round
TTITLE5=Today, Tomorrow And Forever
TTITLE6=Pick Me Up On Your Way Down
TTITLE7=Too Many Secrets
TTITLE8=Fingerprints
TTITLE9=In Care Of The Blues
TTITLE10=Dear God
TTITLE11=I Don't Wanta
TTITLE12=Hungry For Love
TTITLE13=Cry Not For Me
TTITLE14=I'm Moving Along
TTITLE15=If I Could See The World (Through The Eyes Of A Child)
TTITLE16=I Can See An Angel
TTITLE17=That Wonderful Someone
EXTD=
EXTT0=
EXTT1=
EXTT2=
EXTT3=
EXTT4=
EXTT5=
EXTT6=
EXTT7=
EXTT8=
EXTT9=
EXTT10=
EXTT11=
EXTT12=
EXTT13=
EXTT14=
EXTT15=
EXTT16=
EXTT17=
PLAYORDER=
